{
  "accessors": [
    {
      "bufferView": 2,
      "componentType": 5126,
      "count": 65532,
      "max": [
        1.3713072538375854,
        3.3152012825012207,
        3.505929470062256
      ],
      "min": [
        -1.0247896909713745,
        -0.9444980025291443,
        0.40869665145874023
      ],
      "type": "VEC3"
    },
    {
      "bufferView": 2,
      "byteOffset": 786384,
      "componentType": 5126,
      "count": 65532,
      "max": [
        0.9999627470970154,
        0.999950110912323,
        1.0
      ],
      "min": [
        -0.9999666213989258,
        -0.9999369978904724,
        -1.0
      ],
      "type": "VEC3"
    },
    {
      "bufferView": 1,
      "componentType": 5126,
      "count": 65532,
      "max": [
        1.0,
        1.4327020645141602
      ],
      "min": [
        -0.7638350129127502,
        -3.0994415283203125e-05
      ],
      "type": "VEC2"
    },
    {
      "bufferView": 0,
      "componentType": 5125,
      "count": 369267,
      "type": "SCALAR"
    },
    {
      "bufferView": 2,
      "byteOffset": 1572768,
      "componentType": 5126,
      "count": 65532,
      "max": [
        0.5657063722610474,
        3.3152012825012207,
        3.1489367485046387
      ],
      "min": [
        -1.4297598600387573,
        -3.341789722442627,
        -3.6035189628601074
      ],
      "type": "VEC3"
    },
    {
      "bufferView": 2,
      "byteOffset": 2359152,
      "componentType": 5126,
      "count": 65532,
      "max": [
        0.9999871253967285,
        0.9999536871910095,
        0.9986097812652588
      ],
      "min": [
        -0.9999873638153076,
        -0.9999896883964539,
        -0.9979498386383057
      ],
      "type": "VEC3"
    },
    {
      "bufferView": 1,
      "byteOffset": 524256,
      "componentType": 5126,
      "count": 65532,
      "max": [
        0.42528200149536133,
        1.6581050157546997
      ],
      "min": [
        -0.4679110050201416,
        0.7911970019340515
      ],
      "type": "VEC2"
    },
    {
      "bufferView": 0,
      "byteOffset": 1477068,
      "componentType": 5125,
      "count": 356382,
      "type": "SCALAR"
    },
    {
      "bufferView": 2,
      "byteOffset": 3145536,
      "componentType": 5126,
      "count": 65532,
      "max": [
        2.0342841148376465,
        2.195282459259033,
        3.145730495452881
      ],
      "min": [
        -1.4299964904785156,
        -2.158831834793091,
        -3.494189739227295
      ],
      "type": "VEC3"
    },
    {
      "bufferView": 2,
      "byteOffset": 3931920,
      "componentType": 5126,
      "count": 65532,
      "max": [
        0.9999999403953552,
        0.9999925494194031,
        0.760788083076477
      ],
      "min": [
        -0.9994319677352905,
        -0.9999358057975769,
        -0.9819174408912659
      ],
      "type": "VEC3"
    },
    {
      "bufferView": 1,
      "byteOffset": 1048512,
      "componentType": 5126,
      "count": 65532,
      "max": [
        -0.026847999542951584,
        1.615082025527954
      ],
      "min": [
        -0.9731230139732361,
        0.15417397022247314
      ],
      "type": "VEC2"
    },
    {
      "bufferView": 0,
      "byteOffset": 2902596,
      "componentType": 5125,
      "count": 352320,
      "type": "SCALAR"
    },
    {
      "bufferView": 2,
      "byteOffset": 4718304,
      "componentType": 5126,
      "count": 65532,
      "max": [
        2.078979730606079,
        2.2052860260009766,
        3.076354503631592
      ],
      "min": [
        -0.3940671384334564,
        -2.2268168926239014,
        -3.5986123085021973
      ],
      "type": "VEC3"
    },
    {
      "bufferView": 2,
      "byteOffset": 5504688,
      "componentType": 5126,
      "count": 65532,
      "max": [
        0.9999302625656128,
        0.9999691247940063,
        0.8438856601715088
      ],
      "min": [
        -0.9999850988388062,
        -0.9997479319572449,
        -0.9873495697975159
      ],
      "type": "VEC3"
    },
    {
      "bufferView": 1,
      "byteOffset": 1572768,
      "componentType": 5126,
      "count": 65532,
      "max": [
        -0.5324959754943848,
        0.6576240062713623
      ],
      "min": [
        -0.9731230139732361,
        0.02940499782562256
      ],
      "type": "VEC2"
    },
    {
      "bufferView": 0,
      "byteOffset": 4311876,
      "componentType": 5125,
      "count": 366999,
      "type": "SCALAR"
    },
    {
      "bufferView": 2,
      "byteOffset": 6291072,
      "componentType": 5126,
      "count": 65532,
      "max": [
        2.083976984024048,
        2.207611560821533,
        3.0730090141296387
      ],
      "min": [
        -0.3934445083141327,
        -2.2295069694519043,
        -3.6035361289978027
      ],
      "type": "VEC3"
    },
    {
      "bufferView": 2,
      "byteOffset": 7077456,
      "componentType": 5126,
      "count": 65532,
      "max": [
        0.9999851584434509,
        0.9997504353523254,
        0.987354576587677
      ],
      "min": [
        -0.9992386102676392,
        -0.9999693036079407,
        -0.8464526534080505
      ],
      "type": "VEC3"
    },
    {
      "bufferView": 1,
      "byteOffset": 2097024,
      "componentType": 5126,
      "count": 65532,
      "max": [
        -0.5324959754943848,
        0.6576240062713623
      ],
      "min": [
        -0.9731230139732361,
        0.02940499782562256
      ],
      "type": "VEC2"
    },
    {
      "bufferView": 0,
      "byteOffset": 5779872,
      "componentType": 5125,
      "count": 362817,
      "type": "SCALAR"
    },
    {
      "bufferView": 2,
      "byteOffset": 7863840,
      "componentType": 5126,
      "count": 65532,
      "max": [
        2.08382511138916,
        2.2078857421875,
        3.1426291465759277
      ],
      "min": [
        -1.4176286458969116,
        -2.2295069694519043,
        -3.740447521209717
      ],
      "type": "VEC3"
    },
    {
      "bufferView": 2,
      "byteOffset": 8650224,
      "componentType": 5126,
      "count": 65532,
      "max": [
        0.9999707937240601,
        0.99998939037323,
        0.9992810487747192
      ],
      "min": [
        -0.9999102354049683,
        -0.9999938011169434,
        -0.8391292095184326
      ],
      "type": "VEC3"
    },
    {
      "bufferView": 1,
      "byteOffset": 2621280,
      "componentType": 5126,
      "count": 65532,
      "max": [
        -0.026847999542951584,
        1.657684087753296
      ],
      "min": [
        -0.9735419750213623,
        0.02899801731109619
      ],
      "type": "VEC2"
    },
    {
      "bufferView": 0,
      "byteOffset": 7231140,
      "componentType": 5125,
      "count": 304065,
      "type": "SCALAR"
    },
    {
      "bufferView": 2,
      "byteOffset": 9436608,
      "componentType": 5126,
      "count": 65532,
      "max": [
        0.4237078130245209,
        2.1980698108673096,
        3.1489367485046387
      ],
      "min": [
        -1.434996485710144,
        -2.20672869682312,
        -3.7395577430725098
      ],
      "type": "VEC3"
    },
    {
      "bufferView": 2,
      "byteOffset": 10222992,
      "componentType": 5126,
      "count": 65532,
      "max": [
        0.9999707937240601,
        0.9999896883964539,
        0.9819165468215942
      ],
      "min": [
        -0.9999999403953552,
        -0.9999938011169434,
        -0.9792409539222717
      ],
      "type": "VEC3"
    },
    {
      "bufferView": 1,
      "byteOffset": 3145536,
      "componentType": 5126,
      "count": 65532,
      "max": [
        -0.026847999542951584,
        1.657684087753296
      ],
      "min": [
        -0.467492014169693,
        1.0291160345077515
      ],
      "type": "VEC2"
    },
    {
      "bufferView": 0,
      "byteOffset": 8447400,
      "componentType": 5125,
      "count": 349329,
      "type": "SCALAR"
    },
    {
      "bufferView": 2,
      "byteOffset": 11009376,
      "componentType": 5126,
      "count": 8880,
      "max": [
        0.3807072341442108,
        2.156312942504883,
        3.145730495452881
      ],
      "min": [
        -1.3924816846847534,
        -2.2040462493896484,
        -3.7345595359802246
      ],
      "type": "VEC3"
    },
    {
      "bufferView": 2,
      "byteOffset": 11115936,
      "componentType": 5126,
      "count": 8880,
      "max": [
        0.9999390244483948,
        0.9999182820320129,
        0.7498282194137573
      ],
      "min": [
        -0.9995139837265015,
        -0.9999890327453613,
        -0.9819174408912659
      ],
      "type": "VEC3"
    },
    {
      "bufferView": 1,
      "byteOffset": 3669792,
      "componentType": 5126,
      "count": 8880,
      "max": [
        -0.026847999542951584,
        1.657684087753296
      ],
      "min": [
        -0.467492014169693,
        1.0309250354766846
      ],
      "type": "VEC2"
    },
    {
      "bufferView": 0,
      "byteOffset": 9844716,
      "componentType": 5125,
      "count": 26325,
      "type": "SCALAR"
    }
  ],
  "asset": {
    "extras": {
      "author": "arvintriyoga (https://sketchfab.com/arvintriyoga)",
      "license": "CC-BY-4.0 (http://creativecommons.org/licenses/by/4.0/)",
      "source": "https://sketchfab.com/3d-models/polo-shirt-ad89121b65184d52acd2769cc5664a53",
      "title": "POLO SHIRT"
    },
    "generator": "Sketchfab-15.12.0",
    "version": "2.0"
  },
  "bufferViews": [
    {
      "buffer": 0,
      "byteLength": 9950016,
      "name": "floatBufferViews",
      "target": 34963
    },
    {
      "buffer": 0,
      "byteLength": 3740832,
      "byteOffset": 9950016,
      "byteStride": 8,
      "name": "floatBufferViews",
      "target": 34962
    },
    {
      "buffer": 0,
      "byteLength": 11222496,
      "byteOffset": 13690848,
      "byteStride": 12,
      "name": "floatBufferViews",
      "target": 34962
    }
  ],
  "buffers": [
    {
      "byteLength": 24913344,
      "uri": "scene.bin"
    }
  ],
  "images": [
    {
      "uri": "textures/Material_36_baseColor.png"
    }
  ],
  "materials": [
    {
      "name": "Material_36",
      "pbrMetallicRoughness": {
        "baseColorTexture": {
          "index": 0
        },
        "metallicFactor": 0.4,
        "roughnessFactor": 0.707107
      }
    }
  ],
  "meshes": [
    {
      "name": "Object_0",
      "primitives": [
        {
          "attributes": {
            "NORMAL": 1,
            "POSITION": 0,
            "TEXCOORD_0": 2
          },
          "indices": 3,
          "material": 0,
          "mode": 4
        }
      ]
    },
    {
      "name": "Object_1",
      "primitives": [
        {
          "attributes": {
            "NORMAL": 5,
            "POSITION": 4,
            "TEXCOORD_0": 6
          },
          "indices": 7,
          "material": 0,
          "mode": 4
        }
      ]
    },
    {
      "name": "Object_2",
      "primitives": [
        {
          "attributes": {
            "NORMAL": 9,
            "POSITION": 8,
            "TEXCOORD_0": 10
          },
          "indices": 11,
          "material": 0,
          "mode": 4
        }
      ]
    },
    {
      "name": "Object_3",
      "primitives": [
        {
          "attributes": {
            "NORMAL": 13,
            "POSITION": 12,
            "TEXCOORD_0": 14
          },
          "indices": 15,
          "material": 0,
          "mode": 4
        }
      ]
    },
    {
      "name": "Object_4",
      "primitives": [
        {
          "attributes": {
            "NORMAL": 17,
            "POSITION": 16,
            "TEXCOORD_0": 18
          },
          "indices": 19,
          "material": 0,
          "mode": 4
        }
      ]
    },
    {
      "name": "Object_5",
      "primitives": [
        {
          "attributes": {
            "NORMAL": 21,
            "POSITION": 20,
            "TEXCOORD_0": 22
          },
          "indices": 23,
          "material": 0,
          "mode": 4
        }
      ]
    },
    {
      "name": "Object_6",
      "primitives": [
        {
          "attributes": {
            "NORMAL": 25,
            "POSITION": 24,
            "TEXCOORD_0": 26
          },
          "indices": 27,
          "material": 0,
          "mode": 4
        }
      ]
    },
    {
      "name": "Object_7",
      "primitives": [
        {
          "attributes": {
            "NORMAL": 29,
            "POSITION": 28,
            "TEXCOORD_0": 30
          },
          "indices": 31,
          "material": 0,
          "mode": 4
        }
      ]
    }
  ],
  "nodes": [
    {
      "children": [
        1
      ],
      "matrix": [
        1.0,
        0.0,
        0.0,
        0.0,
        0.0,
        2.220446049250313e-16,
        -1.0,
        0.0,
        0.0,
        1.0,
        2.220446049250313e-16,
        0.0,
        0.0,
        0.0,
        0.0,
        1.0
      ],
      "name": "Sketchfab_model"
    },
    {
      "children": [
        2
      ],
      "name": "root"
    },
    {
      "children": [
        3
      ],
      "matrix": [
        1.0,
        0.0,
        0.0,
        0.0,
        0.0,
        2.220446049250313e-16,
        1.0,
        0.0,
        0.0,
        -1.0,
        2.220446049250313e-16,
        0.0,
        0.0,
        0.0,
        0.0,
        1.0
      ],
      "name": "GLTF_SceneRootNode"
    },
    {
      "children": [
        4
      ],
      "name": "RootNode_1"
    },
    {
      "children": [
        5,
        6,
        7,
        8,
        9,
        10,
        11,
        12
      ],
      "matrix": [
        0.10000000149011612,
        0.0,
        -0.0,
        0.0,
        -0.0,
        -1.6858742456511325e-08,
        -0.1000000163912759,
        0.0,
        0.0,
        0.1000000163912759,
        -1.6858742456511325e-08,
        0.0,
        -0.0015881843864917755,
        0.012261051684617996,
        -0.0050414688885211945,
        1.0
      ],
      "name": "default_0"
    },
    {
      "mesh": 0,
      "name": "Object_5"
    },
    {
      "mesh": 1,
      "name": "Object_6"
    },
    {
      "mesh": 2,
      "name": "Object_7"
    },
    {
      "mesh": 3,
      "name": "Object_8"
    },
    {
      "mesh": 4,
      "name": "Object_9"
    },
    {
      "mesh": 5,
      "name": "Object_10"
    },
    {
      "mesh": 6,
      "name": "Object_11"
    },
    {
      "mesh": 7,
      "name": "Object_12"
    }
  ],
  "samplers": [
    {
      "magFilter": 9729,
      "minFilter": 9987,
      "wrapS": 10497,
      "wrapT": 10497
    }
  ],
  "scene": 0,
  "scenes": [
    {
      "name": "Sketchfab_Scene",
      "nodes": [
        0
      ]
    }
  ],
  "textures": [
    {
      "sampler": 0,
      "source": 0
    }
  ]
}
